/* XPM */
static char *pedidos_20despachados[] = {
/* columns rows colors chars-per-pixel */
"48 48 2 1 ",
"  c white",
". c None",
/* pixels */
"..................................       .......",
".............................            .......",
".........................                .......",
".....................                    .......",
"...................                      .......",
"...................                      .......",
"...................                      .......",
"...................                      .......",
".......   ..........                     .......",
"....      ..........                     .......",
"..         ..............              .........",
"           .....................................",
"       .    ....................................",
".   ....    ........          .....          ...",
".........   ....              ....            ..",
".........    ...               ...            ..",
".........    ...               ...             .",
"..........   ...               ...             .",
"..........    ...              ..              .",
"..........    ...              ..              .",
"..........    ...              ..               ",
"...........   ...              ..               ",
"...........    ...             ..               ",
"...........    ...            ....              ",
"...........    ....           ....              ",
"...........    ....       .........        .....",
"............    ................................",
"............    ................................",
"............    ................................",
"............                                 ...",
"............                                  ..",
"............                                 ...",
"............                                 ...",
".............                                ...",
".............       .....................    ...",
"................................................",
"................................................",
"................................................",
".................. .............................",
"...............      ...............     .......",
"..............        .............       ......",
".............          ...........         .....",
".............          ..........          .....",
".............          ..........          .....",
".............         ...........         ......",
".............         ...........         ......",
"..............       ............        .......",
"...............    ................    ........."
};
