/* XPM */
static char *pedidos[] = {
/* columns rows colors chars-per-pixel */
"48 48 2 1 ",
"  c white",
". c None",
/* pixels */
"................................................",
"................................................",
"................................................",
"....................   .........................",
".................        .......................",
"...............             ....................",
".............                 ..................",
"...........                     ................",
".........                         ..............",
".......                              ...........",
".....                                  .........",
"...                                      .......",
"..                                         .....",
"                                             ...",
"                                               .",
"..                                              ",
"...                                            .",
".....                                         ..",
"......                                      ....",
"........                                   .....",
"..   .....                               .......",
".      .....                            ........",
"         .....                        ....    ..",
".         .....                     .....       ",
"...         .....                 .....        .",
"....          .....             .....         ..",
"......          .....         ......         ...",
"........          .....     ......         .....",
"...  ....           ............          ......",
".     .....           ........          ........",
"        .....           ....          .....   ..",
".         .....                      ....      .",
"..          .....                  .....        ",
"....          .....              .....         .",
".....          ......          .....         ...",
".......          ......      .....          ....",
".........          ......  .....          ......",
"...........          ..........         ........",
".............          ......          .........",
"..............                       ...........",
"................                   .............",
"..................               ...............",
"....................            ................",
"......................        ..................",
"........................   .....................",
"................................................",
"................................................",
"................................................"
};
